<svg width="850" height="729" viewBox="0 0 850 729" fill="none" xmlns="http://www.w3.org/2000/svg">
<path d="M157.058 460.111C114.974 460.111 80.0497 451.841 52.2834 435.304C17.5756 415.285 0.221619 385.909 0.221619 347.176C0.221619 309.749 14.3217 278.849 42.5218 254.479C70.2881 230.542 102.609 218.575 139.487 218.575C159.877 218.575 170.073 220.316 170.073 223.797C170.073 224.667 162.48 225.103 147.296 225.103C113.022 225.103 83.0866 235.547 57.4896 256.437C30.1571 277.762 16.4909 306.703 16.4909 343.259C16.4909 378.511 29.0725 406.145 54.2357 426.165C78.5312 445.749 108.033 455.541 142.741 455.541C174.845 455.541 209.987 447.707 248.166 432.04C312.809 405.928 345.131 365.237 345.131 309.967C345.131 294.299 341.443 279.502 334.068 265.576C326.693 251.215 315.412 238.594 300.228 227.714C286.778 217.704 273.112 208.783 259.229 200.949C245.779 192.68 232.113 183.759 218.23 174.184C203.479 164.175 192.416 152.859 185.041 140.239C177.666 127.618 173.978 114.562 173.978 101.071C173.978 81.9221 181.136 64.5137 195.453 48.8465C182.438 50.1521 171.375 56.4629 162.264 67.7777C153.587 79.9637 149.248 92.5841 149.248 105.64C149.248 120.002 152.719 133.711 159.661 146.767C166.603 159.823 177.232 171.79 191.549 182.671C204.13 192.245 216.929 201.602 229.944 210.741C243.394 219.445 256.626 228.149 269.641 236.853C297.408 259.484 311.291 286.683 311.291 318.453C311.291 348.917 295.672 377.64 264.435 404.623C249.684 417.679 234.5 427.253 218.881 433.346C203.263 439.874 187.861 443.138 172.676 443.138C170.507 443.138 169.422 442.485 169.422 441.179C169.422 438.568 170.941 437.263 173.978 437.263C181.353 436.392 187.861 435.304 193.501 433.999C199.141 432.693 204.13 431.387 208.469 430.082C231.897 420.507 252.505 405.928 270.292 386.344C289.815 364.149 299.577 341.518 299.577 318.453C299.577 303.221 296.106 288.86 289.164 275.368C282.657 261.877 272.461 249.909 258.578 239.464C246.43 229.889 233.849 220.968 220.833 212.699C207.818 204.43 195.019 195.509 182.438 185.935C168.121 175.49 157.492 163.522 150.55 150.031C144.042 136.104 140.788 121.525 140.788 106.293C140.788 90.1902 146.211 76.0469 157.058 63.8609C162.698 57.7685 168.988 53.1989 175.93 50.1521C182.872 46.6709 190.464 44.9297 198.707 44.9297H199.358C230.161 15.3364 271.159 0.539307 322.354 0.539307C368.342 0.539307 399.796 11.2014 416.716 32.5265C421.922 39.0545 424.525 46.0181 424.525 53.4161C424.525 67.7777 415.414 78.2225 397.193 84.7505C384.177 89.9729 369.209 92.5841 352.289 92.5841C344.046 92.5841 335.369 92.1486 326.258 91.2785C317.148 89.9729 307.603 88.0145 297.625 85.4033C285.911 83.2276 275.932 80.3982 267.689 76.9169C259.446 73.0001 252.505 69.0833 246.864 65.1665C245.997 64.2965 245.563 63.6437 245.563 63.2081C245.563 61.9025 246.213 61.2497 247.515 61.2497C248.382 61.2497 249.033 61.467 249.467 61.9025C273.763 77.5697 307.386 85.4033 350.337 85.4033C357.712 85.4033 364.437 84.7505 370.511 83.4449C376.585 82.1393 382.225 80.6165 387.431 78.8753C401.748 72.3473 408.907 63.6437 408.907 52.7633C408.907 37.0961 397.627 25.3457 375.066 17.5121C358.146 11.4197 340.575 8.3729 322.354 8.3729C268.556 8.3729 231.462 26.2158 211.072 61.9025C204.998 72.7829 201.961 84.0977 201.961 95.8481C201.961 122.396 216.712 145.678 246.213 165.698C259.663 174.401 273.112 183.106 286.561 191.81C300.444 200.513 314.11 209.218 327.56 217.922C357.061 242.293 371.813 272.104 371.813 307.355C371.813 355.227 347.083 393.96 297.625 423.554C255.541 447.925 208.685 460.111 157.058 460.111ZM395.103 413.109C391.198 413.109 389.246 410.28 389.246 404.623V403.317C390.982 397.224 392.717 389.608 394.452 380.469C396.621 371.33 399.008 360.668 401.611 348.482C404.214 336.296 407.468 321.064 411.372 302.786C415.277 284.072 420.049 262.529 425.689 238.159C425.255 237.288 424.388 235.33 423.086 232.283C422.219 228.802 420.7 224.45 418.531 219.227C416.362 213.569 414.626 209.435 413.325 206.824C412.023 204.213 411.372 202.907 411.372 202.907C411.372 199.861 415.06 197.032 422.435 194.421C444.128 186.152 458.011 182.018 464.085 182.018C470.593 182.018 473.846 183.976 473.846 187.893C473.412 186.587 462.349 214.44 440.657 271.451V277.327C440.657 289.512 438.705 295.605 434.8 295.605C434.366 295.605 433.715 294.952 432.848 293.647C429.377 304.527 425.906 314.972 422.435 324.981C419.398 334.556 416.579 344.129 413.975 353.704C423.52 338.037 433.282 323.023 443.26 308.661C453.673 294.299 464.301 280.808 475.148 268.187C507.687 230.325 534.585 211.394 555.844 211.394C565.822 211.394 570.812 215.311 570.812 223.144C570.812 225.755 570.161 229.019 568.859 232.936C564.955 247.733 559.965 266.446 553.891 289.077C548.251 311.272 541.31 337.167 533.067 366.76C558.23 348.046 577.753 328.028 591.636 306.703C593.805 304.091 595.324 302.786 596.192 302.786C597.493 302.786 598.144 303.656 598.144 305.397C598.144 306.267 597.493 307.791 596.192 309.967C577.103 343.912 553.891 370.894 526.559 390.914C524.823 393.525 522.004 394.831 518.099 394.831C515.062 394.831 513.544 393.089 513.544 389.608C513.544 388.738 513.978 384.821 514.845 377.858C516.147 370.46 518.099 360.232 520.702 347.176C522.871 337.601 524.823 328.245 526.559 319.106C528.295 309.967 530.029 300.61 531.765 291.035C533.934 280.155 535.236 270.146 535.67 261.007C536.537 251.432 537.188 242.728 537.622 234.895C528.077 239.247 517.665 246.428 506.385 256.437C495.539 266.012 483.391 278.197 469.942 292.994C445.213 320.411 427.425 344.348 416.579 364.802C410.505 376.552 405.95 389.173 402.912 402.664C401.177 409.628 398.573 413.109 395.103 413.109ZM429.594 220.533L435.451 198.991C433.282 200.732 429.16 202.907 423.086 205.519C424.388 208.13 425.473 210.741 426.34 213.352C427.642 215.963 428.727 218.357 429.594 220.533ZM667.182 179.407C658.505 179.407 654.166 174.837 654.166 165.698C654.166 160.911 656.769 155.688 661.976 150.031C665.013 146.549 667.616 143.72 669.785 141.544C672.388 139.368 674.774 137.845 676.943 136.975C692.562 129.576 701.889 125.877 704.927 125.877C706.228 125.877 706.879 126.312 706.879 127.183C706.879 128.488 701.889 134.799 691.911 146.114C691.477 146.549 690.61 148.508 689.308 151.989C688.006 155.036 685.62 159.823 682.15 166.351C678.245 175.054 673.255 179.407 667.182 179.407ZM628.135 388.955C606.009 388.955 594.946 377.858 594.946 355.663C594.946 339.125 599.285 318.236 607.961 292.994C606.226 296.04 604.273 299.086 602.105 302.133C600.369 305.18 598.416 308.225 596.248 311.272C590.607 320.847 586.703 325.634 584.534 325.634C583.666 325.634 583.232 324.981 583.232 323.675C583.232 320.194 584.534 316.93 587.137 313.883C597.549 299.522 609.046 278.849 621.628 251.867C622.929 248.386 624.665 244.034 626.834 238.811C629.437 233.589 632.474 227.714 635.945 221.186C638.114 217.269 643.537 215.311 652.214 215.311C659.589 215.311 663.277 217.486 663.277 221.839C663.277 226.191 661.325 232.719 657.42 241.423C652.648 250.126 648.744 255.131 645.706 256.437C623.146 301.697 611.866 334.99 611.866 356.315C611.866 370.677 616.638 377.858 626.183 377.858C641.802 377.858 658.938 366.543 677.594 343.912C697.117 321.281 706.662 309.967 706.228 309.967C707.095 309.967 707.53 310.619 707.53 311.925C707.53 312.36 707.095 313.883 706.228 316.495C702.323 323.458 697.334 330.639 691.26 338.037C685.62 345 679.112 352.399 671.737 360.232C652.648 379.381 638.114 388.955 628.135 388.955ZM664.467 728.411C643.642 728.411 624.986 720.142 608.5 703.605C592.448 687.502 584.422 668.354 584.422 646.159C584.422 627.01 590.062 600.245 601.342 565.864C612.188 531.919 629.325 490.357 652.753 441.179C669.239 406.364 685.942 371.983 702.862 338.037C720.217 303.656 737.353 269.276 754.273 234.895C730.411 200.513 718.481 170.703 718.481 145.461C718.481 122.83 728.026 111.515 747.115 111.515C771.844 111.515 784.209 126.53 784.209 156.559C784.209 171.356 779.87 192.245 771.193 219.227C783.775 233.153 794.187 245.122 802.43 255.131C810.674 265.141 816.964 273.192 821.303 279.285C840.392 306.267 849.937 329.551 849.937 349.135C849.937 365.672 841.911 378.728 825.858 388.303C811.975 397.006 796.357 401.359 779.003 401.359C768.156 401.359 755.791 398.747 741.909 393.525C724.554 386.997 715.878 379.599 715.878 371.33C715.878 370.024 716.312 369.371 717.179 369.371C715.01 369.807 720.867 373.288 734.75 379.816C749.501 387.214 762.517 390.914 773.797 390.914C785.51 390.914 796.139 387.65 805.684 381.122C815.662 373.724 820.652 364.584 820.652 353.704C820.652 325.416 801.346 289.512 762.733 245.992C747.982 280.373 733.232 314.753 718.481 349.135C703.73 383.08 689.413 417.243 675.53 451.624C657.743 495.144 644.509 534.53 635.833 569.781C627.156 605.032 622.817 635.931 622.817 662.479C622.817 701.211 635.399 720.578 660.562 720.578C677.048 720.578 697.005 713.397 720.433 699.035C716.094 706.869 708.069 713.614 696.355 719.272C683.339 725.365 672.71 728.411 664.467 728.411ZM764.035 213.352C771.41 195.944 775.098 177.013 775.098 156.559C775.098 131.317 767.072 118.696 751.019 118.696C743.644 118.696 739.956 126.53 739.956 142.197C739.956 166.568 747.982 190.287 764.035 213.352Z" fill="#A33131"/>
</svg>
